<svg width="284" height="69" viewBox="0 0 284 69" fill="none" xmlns="http://www.w3.org/2000/svg">
<path d="M31.7796 49.6697V55.49H12.503V49.6697H31.7796ZM14.9405 19.2748V55.49H7.47862V19.2748H14.9405ZM29.2674 34.0245V39.6956H12.503V34.0245H29.2674ZM31.7547 19.2748V25.12H12.503V19.2748H31.7547ZM45.5006 34.323V55.49H38.3371V28.5773H45.0529L45.5006 34.323ZM44.4559 41.0885H42.5158C42.5158 39.0986 42.7728 37.3078 43.2869 35.7159C43.8009 34.1074 44.5222 32.7394 45.4508 31.6118C46.3794 30.4677 47.4821 29.5971 48.7589 29.0002C50.0523 28.3866 51.495 28.0799 53.0869 28.0799C54.3471 28.0799 55.4995 28.2623 56.5442 28.6271C57.5889 28.9919 58.4843 29.5723 59.2305 30.3682C59.9933 31.1641 60.5737 32.2171 60.9716 33.5271C61.3862 34.8371 61.5935 36.4372 61.5935 38.3276V55.49H54.3803V38.3027C54.3803 37.1088 54.2144 36.1802 53.8828 35.5169C53.5512 34.8536 53.062 34.3893 52.4153 34.124C51.7852 33.8421 51.0058 33.7012 50.0772 33.7012C49.1155 33.7012 48.2781 33.8919 47.565 34.2733C46.8686 34.6547 46.2882 35.1853 45.8239 35.8651C45.3762 36.5284 45.0363 37.3078 44.8041 38.2032C44.572 39.0986 44.4559 40.0604 44.4559 41.0885ZM80.9606 50.391C81.8395 50.391 82.6188 50.2252 83.2987 49.8936C83.9785 49.5453 84.5092 49.0644 84.8906 48.4509C85.2885 47.8208 85.4958 47.0829 85.5124 46.2372H92.253C92.2364 48.1276 91.7307 49.8106 90.7357 51.2864C89.7408 52.7457 88.406 53.8981 86.7312 54.7438C85.0564 55.5729 83.1826 55.9875 81.1099 55.9875C79.0205 55.9875 77.1965 55.6392 75.6378 54.9428C74.0956 54.2463 72.8105 53.2846 71.7825 52.0575C70.7544 50.8139 69.9833 49.3712 69.4693 47.7296C68.9552 46.0714 68.6982 44.2971 68.6982 42.4068V41.6854C68.6982 39.7785 68.9552 38.0042 69.4693 36.3626C69.9833 34.7044 70.7544 33.2618 71.7825 32.0347C72.8105 30.791 74.0956 29.821 75.6378 29.1245C77.1799 28.4281 78.9874 28.0799 81.0601 28.0799C83.2655 28.0799 85.1973 28.5027 86.8555 29.3484C88.5303 30.1941 89.8403 31.4046 90.7855 32.9799C91.7472 34.5386 92.2364 36.3875 92.253 38.5266H85.5124C85.4958 37.6311 85.3051 36.8186 84.9403 36.089C84.5921 35.3594 84.078 34.779 83.3982 34.3479C82.7349 33.9002 81.9141 33.6763 80.9357 33.6763C79.8911 33.6763 79.0371 33.9002 78.3738 34.3479C77.7105 34.779 77.1965 35.376 76.8317 36.1387C76.4669 36.8849 76.2099 37.7389 76.0606 38.7007C75.928 39.6458 75.8616 40.6408 75.8616 41.6854V42.4068C75.8616 43.4514 75.928 44.4546 76.0606 45.4164C76.1933 46.3782 76.442 47.2321 76.8068 47.9783C77.1882 48.7245 77.7105 49.3132 78.3738 49.7443C79.0371 50.1754 79.8994 50.391 80.9606 50.391ZM115.127 49.0479V28.5773H122.291V55.49H115.55L115.127 49.0479ZM115.923 43.526L118.037 43.4763C118.037 45.2672 117.83 46.9337 117.416 48.4758C117.001 50.0013 116.379 51.3279 115.55 52.4555C114.721 53.5665 113.676 54.437 112.416 55.0671C111.156 55.6807 109.672 55.9875 107.964 55.9875C106.654 55.9875 105.443 55.805 104.332 55.4402C103.238 55.0589 102.293 54.4702 101.497 53.6743C100.717 52.8617 100.104 51.8254 99.6562 50.5651C99.2251 49.2883 99.0095 47.7545 99.0095 45.9636V28.5773H106.173V46.0134C106.173 46.8093 106.264 47.4809 106.447 48.0281C106.646 48.5753 106.919 49.023 107.267 49.3712C107.616 49.7194 108.022 49.9682 108.486 50.1174C108.967 50.2666 109.498 50.3413 110.078 50.3413C111.554 50.3413 112.715 50.0428 113.56 49.4458C114.423 48.8489 115.028 48.0364 115.376 47.0083C115.741 45.9636 115.923 44.8029 115.923 43.526ZM137.728 34.4474V55.49H130.564V28.5773H137.305L137.728 34.4474ZM145.837 28.4032L145.712 35.0443C145.364 34.9946 144.941 34.9531 144.444 34.92C143.963 34.8702 143.523 34.8453 143.125 34.8453C142.114 34.8453 141.235 34.978 140.489 35.2433C139.759 35.492 139.146 35.8651 138.648 36.3626C138.167 36.8601 137.803 37.4653 137.554 38.1783C137.322 38.8914 137.189 39.7039 137.156 40.6159L135.713 40.1682C135.713 38.4271 135.887 36.8269 136.236 35.3677C136.584 33.8919 137.09 32.6068 137.753 31.5124C138.433 30.4179 139.262 29.5723 140.24 28.9753C141.218 28.3783 142.338 28.0799 143.598 28.0799C143.996 28.0799 144.402 28.113 144.817 28.1794C145.231 28.2291 145.571 28.3037 145.837 28.4032ZM166.447 28.5773V33.6514H150.777V28.5773H166.447ZM154.658 21.9362H161.821V47.3814C161.821 48.1607 161.92 48.7577 162.119 49.1722C162.335 49.5868 162.65 49.877 163.065 50.0428C163.479 50.192 164.001 50.2666 164.632 50.2666C165.079 50.2666 165.477 50.2501 165.826 50.2169C166.19 50.1672 166.497 50.1174 166.746 50.0677L166.771 55.3408C166.157 55.5397 165.494 55.6973 164.781 55.8133C164.068 55.9294 163.28 55.9875 162.418 55.9875C160.843 55.9875 159.466 55.7304 158.289 55.2164C157.128 54.6858 156.233 53.8401 155.603 52.6793C154.973 51.5186 154.658 49.993 154.658 48.1027V21.9362ZM187.854 49.421V37.4321C187.854 36.5699 187.713 35.832 187.431 35.2184C187.149 34.5883 186.71 34.0992 186.113 33.7509C185.533 33.4027 184.778 33.2286 183.85 33.2286C183.054 33.2286 182.365 33.3695 181.785 33.6514C181.205 33.9168 180.757 34.3064 180.442 34.8205C180.127 35.3179 179.969 35.9066 179.969 36.5865H172.806C172.806 35.4423 173.071 34.3562 173.602 33.3281C174.132 32.3 174.904 31.3963 175.915 30.6169C176.927 29.821 178.129 29.1992 179.522 28.7514C180.931 28.3037 182.506 28.0799 184.248 28.0799C186.337 28.0799 188.194 28.4281 189.819 29.1245C191.444 29.821 192.721 30.8657 193.65 32.2585C194.595 33.6514 195.067 35.3926 195.067 37.4819V48.9981C195.067 50.4739 195.158 51.6844 195.341 52.6296C195.523 53.5582 195.789 54.3707 196.137 55.0671V55.49H188.899C188.551 54.7604 188.285 53.8484 188.103 52.754C187.937 51.643 187.854 50.532 187.854 49.421ZM188.799 39.0986L188.849 43.153H184.844C183.899 43.153 183.078 43.2607 182.382 43.4763C181.686 43.6919 181.114 43.9986 180.666 44.3966C180.218 44.778 179.886 45.2257 179.671 45.7397C179.472 46.2538 179.372 46.8176 179.372 47.4311C179.372 48.0447 179.513 48.6002 179.795 49.0976C180.077 49.5785 180.483 49.9599 181.014 50.2418C181.545 50.5071 182.166 50.6397 182.879 50.6397C183.957 50.6397 184.894 50.4242 185.69 49.993C186.486 49.5619 187.1 49.0313 187.531 48.4012C187.978 47.771 188.211 47.1741 188.227 46.6103L190.118 49.6448C189.852 50.3247 189.487 51.0294 189.023 51.759C188.575 52.4886 188.003 53.1768 187.307 53.8235C186.61 54.4536 185.773 54.9759 184.795 55.3905C183.816 55.7885 182.656 55.9875 181.312 55.9875C179.605 55.9875 178.054 55.6475 176.661 54.9677C175.285 54.2712 174.19 53.3177 173.378 52.1073C172.582 50.8802 172.184 49.4873 172.184 47.9286C172.184 46.5191 172.449 45.2672 172.98 44.1727C173.511 43.0783 174.29 42.158 175.318 41.4118C176.363 40.6491 177.664 40.077 179.223 39.6956C180.782 39.2976 182.589 39.0986 184.645 39.0986H188.799ZM219.285 49.6199V17.285H226.498V55.49H220.006L219.285 49.6199ZM202.272 42.357V41.8347C202.272 39.7785 202.504 37.913 202.968 36.2382C203.432 34.5469 204.112 33.0959 205.008 31.8855C205.903 30.675 207.006 29.7381 208.316 29.0748C209.626 28.4115 211.118 28.0799 212.793 28.0799C214.368 28.0799 215.744 28.4115 216.922 29.0748C218.116 29.7381 219.127 30.6833 219.956 31.9103C220.802 33.1208 221.482 34.5552 221.996 36.2134C222.51 37.855 222.883 39.6541 223.115 41.6108V42.755C222.883 44.6288 222.51 46.3699 221.996 47.9783C221.482 49.5868 220.802 50.9963 219.956 52.2067C219.127 53.4007 218.116 54.3292 216.922 54.9925C215.728 55.6558 214.335 55.9875 212.743 55.9875C211.068 55.9875 209.576 55.6475 208.266 54.9677C206.973 54.2878 205.878 53.3343 204.983 52.1073C204.104 50.8802 203.432 49.4375 202.968 47.7793C202.504 46.1211 202.272 44.3137 202.272 42.357ZM209.435 41.8347V42.357C209.435 43.468 209.518 44.5044 209.684 45.4661C209.866 46.4279 210.156 47.2819 210.554 48.0281C210.969 48.7577 211.499 49.3298 212.146 49.7443C212.809 50.1423 213.614 50.3413 214.559 50.3413C215.786 50.3413 216.797 50.0677 217.593 49.5205C218.389 48.9567 218.995 48.1856 219.409 47.2073C219.84 46.2289 220.089 45.1013 220.155 43.8245V40.5662C220.106 39.5215 219.956 38.5846 219.708 37.7555C219.475 36.9098 219.127 36.1885 218.663 35.5915C218.215 34.9946 217.651 34.5303 216.972 34.1986C216.308 33.867 215.521 33.7012 214.609 33.7012C213.68 33.7012 212.884 33.9168 212.221 34.3479C211.557 34.7624 211.019 35.3345 210.604 36.0641C210.206 36.7937 209.908 37.656 209.709 38.6509C209.526 39.6293 209.435 40.6905 209.435 41.8347ZM233.752 42.3073V41.7849C233.752 39.8117 234.034 37.9959 234.598 36.3377C235.161 34.6629 235.982 33.212 237.06 31.9849C238.138 30.7579 239.464 29.8044 241.04 29.1245C242.615 28.4281 244.422 28.0799 246.462 28.0799C248.502 28.0799 250.317 28.4281 251.909 29.1245C253.501 29.8044 254.836 30.7579 255.914 31.9849C257.008 33.212 257.837 34.6629 258.401 36.3377C258.965 37.9959 259.247 39.8117 259.247 41.7849V42.3073C259.247 44.2639 258.965 46.0797 258.401 47.7545C257.837 49.4127 257.008 50.8636 255.914 52.1073C254.836 53.3343 253.509 54.2878 251.934 54.9677C250.359 55.6475 248.551 55.9875 246.512 55.9875C244.472 55.9875 242.656 55.6475 241.065 54.9677C239.489 54.2878 238.154 53.3343 237.06 52.1073C235.982 50.8636 235.161 49.4127 234.598 47.7545C234.034 46.0797 233.752 44.2639 233.752 42.3073ZM240.915 41.7849V42.3073C240.915 43.4348 241.015 44.4878 241.214 45.4661C241.413 46.4445 241.728 47.3068 242.159 48.0529C242.607 48.7826 243.187 49.3546 243.9 49.7692C244.613 50.1837 245.484 50.391 246.512 50.391C247.507 50.391 248.361 50.1837 249.074 49.7692C249.787 49.3546 250.359 48.7826 250.79 48.0529C251.221 47.3068 251.536 46.4445 251.735 45.4661C251.951 44.4878 252.058 43.4348 252.058 42.3073V41.7849C252.058 40.6905 251.951 39.6624 251.735 38.7007C251.536 37.7223 251.213 36.8601 250.765 36.1139C250.334 35.3511 249.762 34.7541 249.049 34.323C248.336 33.8919 247.474 33.6763 246.462 33.6763C245.451 33.6763 244.588 33.8919 243.875 34.323C243.179 34.7541 242.607 35.3511 242.159 36.1139C241.728 36.8601 241.413 37.7223 241.214 38.7007C241.015 39.6624 240.915 40.6905 240.915 41.7849ZM273.614 34.4474V55.49H266.451V28.5773H273.192L273.614 34.4474ZM281.723 28.4032L281.599 35.0443C281.25 34.9946 280.828 34.9531 280.33 34.92C279.849 34.8702 279.41 34.8453 279.012 34.8453C278 34.8453 277.122 34.978 276.375 35.2433C275.646 35.492 275.032 35.8651 274.535 36.3626C274.054 36.8601 273.689 37.4653 273.44 38.1783C273.208 38.8914 273.076 39.7039 273.042 40.6159L271.6 40.1682C271.6 38.4271 271.774 36.8269 272.122 35.3677C272.47 33.8919 272.976 32.6068 273.639 31.5124C274.319 30.4179 275.148 29.5723 276.127 28.9753C277.105 28.3783 278.224 28.0799 279.484 28.0799C279.882 28.0799 280.289 28.113 280.703 28.1794C281.118 28.2291 281.458 28.3037 281.723 28.4032Z" fill="#1D2730"/>
<rect x="8.83691" y="-0.00012207" width="7.29735" height="62.0275" rx="3.64868" transform="rotate(8.19041 8.83691 -0.00012207)" fill="#08C9C9"/>
</svg>
